<svg xmlns="http://www.w3.org/2000/svg" width="360" height="52" viewBox="0 0 360 52" role="img" aria-labelledby="title desc">
  <title id="title">Review us on Trustpilot</title>
  <desc id="desc">Trustpilot review button with five stars</desc>
  <rect width="360" height="52" rx="8" fill="#fff"/>
  <rect x="0.5" y="0.5" width="359" height="51" rx="7.5" fill="none" stroke="#d9d9d9"/>
  <text x="16" y="21" fill="#191919" font-family="Arial, Helvetica, sans-serif" font-size="13">Review us on</text>
  <path d="M100 10.4l3.2 9.8h10.3l-8.3 6 3.2 9.8-8.4-6.1-8.3 6.1 3.2-9.8-8.4-6h10.3z" fill="#00b67a"/>
  <text x="119" y="31" fill="#191919" font-family="Arial, Helvetica, sans-serif" font-size="20" font-weight="700">Trustpilot</text>
  <g transform="translate(245 15)">
    <g fill="#00b67a">
      <rect width="20" height="20"/><rect x="22" width="20" height="20"/><rect x="44" width="20" height="20"/><rect x="66" width="20" height="20"/><rect x="88" width="20" height="20"/>
    </g>
    <g fill="#fff">
      <path d="M10 3.2l1.6 4.9h5.2l-4.2 3 1.6 4.9-4.2-3-4.2 3 1.6-4.9-4.2-3h5.2z"/>
      <path d="M32 3.2l1.6 4.9h5.2l-4.2 3 1.6 4.9-4.2-3-4.2 3 1.6-4.9-4.2-3h5.2z"/>
      <path d="M54 3.2l1.6 4.9h5.2l-4.2 3 1.6 4.9-4.2-3-4.2 3 1.6-4.9-4.2-3h5.2z"/>
      <path d="M76 3.2l1.6 4.9h5.2l-4.2 3 1.6 4.9-4.2-3-4.2 3 1.6-4.9-4.2-3h5.2z"/>
      <path d="M98 3.2l1.6 4.9h5.2l-4.2 3 1.6 4.9-4.2-3-4.2 3 1.6-4.9-4.2-3h5.2z"/>
    </g>
  </g>
</svg>
