<?xml version="1.0" standalone="no"?>
<!DOCTYPE svg PUBLIC "-//W3C//DTD SVG 1.1//EN" "http://www.w3.org/Graphics/SVG/1.1/DTD/svg11.dtd">
<svg width="66" height="66" version="1.1" xmlns="http://www.w3.org/2000/svg">
 <desc>Zint Generated Symbol</desc>
 <g id="barcode" fill="#000000">
  <rect x="0" y="0" width="66" height="66" fill="#FFFFFF"/>
  <path d="M8 8h14v2h-14ZM24 8h2v2h-2ZM28 8h4v2h-4ZM36 8h2v2h-2ZM44 8h14v2h-14ZM8 10h2v10h-2ZM20 10h2v10h-2ZM24 10h4v2h-4ZM32 10h2v2h-2ZM40 10h2v12h-2ZM44 10h2v10h-2ZM56 10h2v10h-2ZM12 12h6v6h-6ZM24 12h2v2h-2ZM34 12h4v2h-4ZM48 12h6v6h-6ZM26 14h2v2h-2ZM30 14h6v2h-6ZM24 16h2v2h-2ZM28 16h2v2h-2ZM34 16h4v2h-4ZM28 18h6v2h-6ZM36 18h2v4h-2ZM8 20h14v2h-14ZM24 20h2v2h-2ZM28 20h2v2h-2ZM32 20h2v2h-2ZM44 20h14v2h-14ZM30 22h2v2h-2ZM34 22h2v2h-2ZM38 22h4v2h-4ZM8 24h2v4h-2ZM14 24h12v2h-12ZM32 24h2v2h-2ZM40 24h4v2h-4ZM48 24h2v2h-2ZM52 24h6v2h-6ZM22 26h4v2h-4ZM32 26h12v2h-12ZM46 26h10v2h-10ZM12 28h2v2h-2ZM18 28h4v2h-4ZM24 28h4v2h-4ZM34 28h2v2h-2ZM38 28h6v2h-6ZM46 28h6v2h-6ZM56 28h2v2h-2ZM10 30h2v2h-2ZM16 30h4v2h-4ZM22 30h4v2h-4ZM30 30h2v2h-2ZM36 30h2v2h-2ZM42 30h6v2h-6ZM50 30h8v2h-8ZM8 32h8v6h-8ZM20 32h2v2h-2ZM38 32h4v6h-4ZM44 32h4v2h-4ZM56 32h2v2h-2ZM18 34h2v2h-2ZM28 34h2v4h-2ZM32 34h4v2h-4ZM48 34h2v2h-2ZM54 34h2v2h-2ZM20 36h4v2h-4ZM34 36h2v2h-2ZM44 36h2v2h-2ZM48 36h10v2h-10ZM8 38h2v4h-2ZM16 38h2v4h-2ZM26 38h4v2h-4ZM32 38h2v2h-2ZM42 38h6v2h-6ZM50 38h4v2h-4ZM56 38h2v2h-2ZM20 40h2v2h-2ZM24 40h4v4h-4ZM30 40h6v2h-6ZM40 40h10v2h-10ZM52 40h4v4h-4ZM30 42h2v2h-2ZM36 42h2v4h-2ZM40 42h2v4h-2ZM48 42h2v6h-2ZM8 44h14v2h-14ZM24 44h6v2h-6ZM32 44h2v2h-2ZM44 44h2v2h-2ZM56 44h2v2h-2ZM8 46h2v10h-2ZM20 46h2v10h-2ZM24 46h8v2h-8ZM34 46h8v2h-8ZM12 48h6v6h-6ZM24 48h4v4h-4ZM30 48h2v2h-2ZM34 48h2v2h-2ZM38 48h12v2h-12ZM54 48h4v4h-4ZM32 50h6v2h-6ZM40 50h6v2h-6ZM28 52h4v2h-4ZM34 52h2v2h-2ZM38 52h2v4h-2ZM42 52h2v2h-2ZM48 52h10v2h-10ZM28 54h8v2h-8ZM46 54h4v2h-4ZM52 54h6v2h-6ZM8 56h14v2h-14ZM24 56h2v2h-2ZM30 56h6v2h-6ZM40 56h2v2h-2ZM44 56h2v2h-2ZM50 56h2v2h-2ZM56 56h2v2h-2Z"/>
 </g>
</svg>
